<mxfile host="Electron" modified="2023-08-09T14:56:22.565Z" agent="Mozilla/5.0 (Windows NT 10.0; Win64; x64) AppleWebKit/537.36 (KHTML, like Gecko) draw.io/21.6.5 Chrome/114.0.5735.243 Electron/25.3.1 Safari/537.36" etag="8Y5rSmmlHXFMVYbrgE3W" version="21.6.5" type="device">
  <diagram name="Page-1" id="TcjQnERcQWv9h03Iimbc">
    <mxGraphModel dx="880" dy="545" grid="1" gridSize="10" guides="1" tooltips="1" connect="1" arrows="1" fold="1" page="1" pageScale="1" pageWidth="1169" pageHeight="827" math="0" shadow="0">
      <root>
        <mxCell id="0" />
        <mxCell id="1" parent="0" />
        <mxCell id="SAPRyXW1DCSVI-HbmaNv-7" value="Factory" style="shape=folder;fontStyle=1;tabWidth=100;tabHeight=20;tabPosition=left;html=1;boundedLbl=1;labelInHeader=1;container=1;collapsible=0;recursiveResize=0;whiteSpace=wrap;fontFamily=Helvetica;fontSize=11;fontColor=default;" vertex="1" parent="1">
          <mxGeometry x="440" y="220" width="320" height="140" as="geometry" />
        </mxCell>
        <mxCell id="SAPRyXW1DCSVI-HbmaNv-12" value="«device»&lt;br&gt;&lt;b&gt;TV&lt;/b&gt;" style="swimlane;fontStyle=0;align=center;verticalAlign=top;childLayout=stackLayout;horizontal=1;startSize=40;horizontalStack=0;resizeParent=1;resizeParentMax=0;resizeLast=0;collapsible=0;marginBottom=0;html=1;whiteSpace=wrap;fontFamily=Helvetica;fontSize=11;fontColor=default;" vertex="1" parent="SAPRyXW1DCSVI-HbmaNv-7">
          <mxGeometry x="20" y="40" width="140" height="70" as="geometry" />
        </mxCell>
        <mxCell id="SAPRyXW1DCSVI-HbmaNv-13" value="channel: JavaInteger" style="text;html=1;strokeColor=none;fillColor=none;align=left;verticalAlign=middle;spacingLeft=4;spacingRight=4;overflow=hidden;rotatable=0;points=[[0,0.5],[1,0.5]];portConstraint=eastwest;whiteSpace=wrap;fontSize=11;fontFamily=Helvetica;fontColor=default;" vertex="1" parent="SAPRyXW1DCSVI-HbmaNv-12">
          <mxGeometry y="40" width="140" height="30" as="geometry" />
        </mxCell>
        <mxCell id="SAPRyXW1DCSVI-HbmaNv-17" style="edgeStyle=none;shape=connector;rounded=0;orthogonalLoop=1;jettySize=auto;html=1;entryX=1;entryY=0.5;entryDx=0;entryDy=0;labelBackgroundColor=none;strokeColor=default;fontFamily=Helvetica;fontSize=11;fontColor=default;startArrow=none;startFill=0;endArrow=oval;endFill=0;endSize=4;dashed=1;dashPattern=1 4;" edge="1" parent="SAPRyXW1DCSVI-HbmaNv-7" source="SAPRyXW1DCSVI-HbmaNv-16" target="SAPRyXW1DCSVI-HbmaNv-12">
          <mxGeometry relative="1" as="geometry" />
        </mxCell>
        <mxCell id="SAPRyXW1DCSVI-HbmaNv-16" value="«Device»&lt;br&gt;volume = 10" style="shape=note2;boundedLbl=1;whiteSpace=wrap;html=1;size=12;verticalAlign=middle;align=left;fontFamily=Helvetica;fontSize=11;fontColor=default;" vertex="1" parent="SAPRyXW1DCSVI-HbmaNv-7">
          <mxGeometry x="220" y="90" width="80" height="40" as="geometry" />
        </mxCell>
        <mxCell id="SAPRyXW1DCSVI-HbmaNv-3" value="Types" style="shape=folder;fontStyle=1;tabWidth=90;tabHeight=20;tabPosition=left;html=1;boundedLbl=1;labelInHeader=1;container=1;collapsible=0;recursiveResize=0;whiteSpace=wrap;fontFamily=Helvetica;fontSize=11;fontColor=default;" vertex="1" parent="1">
          <mxGeometry x="230" width="310" height="160" as="geometry" />
        </mxCell>
        <mxCell id="SAPRyXW1DCSVI-HbmaNv-4" value="&lt;b&gt;JavaInteger&lt;/b&gt;" style="html=1;whiteSpace=wrap;fontFamily=Helvetica;fontSize=11;fontColor=default;" vertex="1" parent="SAPRyXW1DCSVI-HbmaNv-3">
          <mxGeometry width="80" height="30" relative="1" as="geometry">
            <mxPoint x="200" y="75" as="offset" />
          </mxGeometry>
        </mxCell>
        <mxCell id="SAPRyXW1DCSVI-HbmaNv-23" value="&lt;p style=&quot;margin:0px;margin-top:4px;text-align:center;&quot;&gt;«enumeration»&lt;br&gt;&lt;b&gt;Color&lt;/b&gt;&lt;/p&gt;&lt;hr&gt;&lt;p style=&quot;margin:0px;margin-left:8px;text-align:left;&quot;&gt;red&lt;br&gt;green&lt;/p&gt;&lt;p style=&quot;margin:0px;margin-left:8px;text-align:left;&quot;&gt;blue&lt;/p&gt;" style="shape=rect;html=1;overflow=fill;whiteSpace=wrap;fontFamily=Helvetica;fontSize=11;fontColor=default;" vertex="1" parent="SAPRyXW1DCSVI-HbmaNv-3">
          <mxGeometry x="25" y="40" width="100" height="100" as="geometry" />
        </mxCell>
        <mxCell id="SAPRyXW1DCSVI-HbmaNv-5" value="«profile» Manufacturer" style="shape=folder;fontStyle=1;tabWidth=160;tabHeight=20;tabPosition=left;html=1;boundedLbl=1;labelInHeader=1;container=1;collapsible=0;recursiveResize=0;whiteSpace=wrap;fontFamily=Helvetica;fontSize=11;fontColor=default;" vertex="1" parent="1">
          <mxGeometry y="200" width="360" height="140" as="geometry" />
        </mxCell>
        <mxCell id="SAPRyXW1DCSVI-HbmaNv-6" value="«metaclass»&lt;br&gt;Class" style="html=1;whiteSpace=wrap;fontFamily=Helvetica;fontSize=11;fontColor=default;" vertex="1" parent="SAPRyXW1DCSVI-HbmaNv-5">
          <mxGeometry width="90" height="40" relative="1" as="geometry">
            <mxPoint x="30" y="60" as="offset" />
          </mxGeometry>
        </mxCell>
        <mxCell id="SAPRyXW1DCSVI-HbmaNv-11" style="edgeStyle=none;shape=connector;rounded=0;orthogonalLoop=1;jettySize=auto;html=1;labelBackgroundColor=none;strokeColor=default;fontFamily=Helvetica;fontSize=11;fontColor=default;startArrow=none;startFill=0;endArrow=blockThin;endFill=1;endSize=12;exitX=0;exitY=0.5;exitDx=0;exitDy=0;" edge="1" parent="SAPRyXW1DCSVI-HbmaNv-5" source="SAPRyXW1DCSVI-HbmaNv-9" target="SAPRyXW1DCSVI-HbmaNv-6">
          <mxGeometry relative="1" as="geometry">
            <mxPoint x="120" y="80" as="targetPoint" />
          </mxGeometry>
        </mxCell>
        <mxCell id="SAPRyXW1DCSVI-HbmaNv-9" value="«stereotype»&lt;br&gt;&lt;b&gt;Device&lt;/b&gt;" style="swimlane;fontStyle=0;align=center;verticalAlign=top;childLayout=stackLayout;horizontal=1;startSize=40;horizontalStack=0;resizeParent=1;resizeParentMax=0;resizeLast=0;collapsible=0;marginBottom=0;html=1;whiteSpace=wrap;fontFamily=Helvetica;fontSize=11;fontColor=default;" vertex="1" parent="SAPRyXW1DCSVI-HbmaNv-5">
          <mxGeometry x="200" y="35" width="140" height="90" as="geometry" />
        </mxCell>
        <mxCell id="SAPRyXW1DCSVI-HbmaNv-10" value="author: String&lt;br&gt;color: Color&lt;br&gt;volume: JavaInteger" style="text;html=1;strokeColor=none;fillColor=none;align=left;verticalAlign=middle;spacingLeft=4;spacingRight=4;overflow=hidden;rotatable=0;points=[[0,0.5],[1,0.5]];portConstraint=eastwest;whiteSpace=wrap;fontSize=11;fontFamily=Helvetica;fontColor=default;" vertex="1" parent="SAPRyXW1DCSVI-HbmaNv-9">
          <mxGeometry y="40" width="140" height="50" as="geometry" />
        </mxCell>
        <mxCell id="SAPRyXW1DCSVI-HbmaNv-18" value="«import»" style="endArrow=open;startArrow=none;endFill=0;startFill=0;endSize=8;html=1;verticalAlign=bottom;dashed=1;labelBackgroundColor=none;rounded=0;strokeColor=default;fontFamily=Helvetica;fontSize=11;fontColor=default;shape=connector;exitX=0;exitY=0;exitDx=260;exitDy=20;exitPerimeter=0;entryX=0.25;entryY=1;entryDx=0;entryDy=0;entryPerimeter=0;align=left;" edge="1" parent="1" source="SAPRyXW1DCSVI-HbmaNv-5" target="SAPRyXW1DCSVI-HbmaNv-3">
          <mxGeometry x="-0.7097" y="34" width="160" relative="1" as="geometry">
            <mxPoint x="350" y="370" as="sourcePoint" />
            <mxPoint x="510" y="370" as="targetPoint" />
            <mxPoint as="offset" />
          </mxGeometry>
        </mxCell>
        <mxCell id="SAPRyXW1DCSVI-HbmaNv-19" value="«import»" style="endArrow=open;startArrow=none;endFill=0;startFill=0;endSize=8;html=1;verticalAlign=bottom;dashed=1;labelBackgroundColor=none;rounded=0;strokeColor=default;fontFamily=Helvetica;fontSize=11;fontColor=default;shape=connector;exitX=0;exitY=0;exitDx=50;exitDy=0;exitPerimeter=0;entryX=0.75;entryY=1;entryDx=0;entryDy=0;entryPerimeter=0;align=left;" edge="1" parent="1" source="SAPRyXW1DCSVI-HbmaNv-7" target="SAPRyXW1DCSVI-HbmaNv-3">
          <mxGeometry x="0.7102" y="51" width="160" relative="1" as="geometry">
            <mxPoint x="270" y="290" as="sourcePoint" />
            <mxPoint x="408" y="180" as="targetPoint" />
            <mxPoint as="offset" />
          </mxGeometry>
        </mxCell>
        <mxCell id="SAPRyXW1DCSVI-HbmaNv-22" value="«apply»" style="endArrow=open;startArrow=none;endFill=0;startFill=0;endSize=8;html=1;verticalAlign=bottom;dashed=1;labelBackgroundColor=none;rounded=0;strokeColor=default;fontFamily=Helvetica;fontSize=11;fontColor=default;shape=connector;exitX=0;exitY=0;exitDx=0;exitDy=80;exitPerimeter=0;entryX=0;entryY=0;entryDx=360;entryDy=80;entryPerimeter=0;align=left;" edge="1" parent="1" source="SAPRyXW1DCSVI-HbmaNv-7" target="SAPRyXW1DCSVI-HbmaNv-5">
          <mxGeometry x="0.5294" y="-5" width="160" relative="1" as="geometry">
            <mxPoint x="500" y="230" as="sourcePoint" />
            <mxPoint x="473" y="170" as="targetPoint" />
            <mxPoint as="offset" />
          </mxGeometry>
        </mxCell>
        <mxCell id="SAPRyXW1DCSVI-HbmaNv-24" value="&lt;b&gt;Figure 12.22 Importing a Package from a Profile&lt;/b&gt;" style="text;html=1;align=left;verticalAlign=middle;resizable=0;points=[];autosize=1;strokeColor=none;fillColor=none;fontSize=11;fontFamily=Helvetica;fontColor=default;" vertex="1" parent="1">
          <mxGeometry y="360" width="270" height="30" as="geometry" />
        </mxCell>
      </root>
    </mxGraphModel>
  </diagram>
</mxfile>
